<svg width="41" height="40" viewBox="0 0 41 40" fill="none" xmlns="http://www.w3.org/2000/svg">
<g clip-path="url(#clip0_1940_380)">
<path d="M33.877 13.9354C33.877 13.9354 30.5657 12.6166 28.36 12.789C26.4666 12.937 24.4864 13.967 23.7821 14.5086C22.3835 15.5842 21.7866 16.6869 21.0823 18.0626C20.1831 19.8191 19.6872 20.3487 17.9129 21.2725C16.6178 21.9469 16.2696 21.808 14.5088 22.419C13.6183 22.728 13.7338 22.7151 12.6307 23.1069C11.3395 23.5654 12.2252 26.0385 13.1001 27.4633C13.8745 28.7244 14.839 29.498 16.5043 30.2147C18.0705 30.8887 18.9182 31.1257 20.6127 31.3611C22.4484 31.6162 24.5031 31.3524 25.1907 31.9344C25.7543 32.4114 26.9035 33.1018 27.6784 33.6558C27.9628 33.8592 28.089 34.2084 28.0734 34.5577C28.0329 35.4644 28.1705 37.07 29.7969 36.2096C30.9393 35.6053 32.0697 34.8353 32.9554 34.0837C34.2538 32.982 35.1525 31.9579 35.1525 31.9579" stroke="url(#paint0_linear_1940_380)" stroke-width="2" stroke-linecap="round"/>
<path d="M32.0186 16.5886C31.1913 17.7267 30.5767 19.707 30.4822 21.7099C30.3876 23.7129 30.4822 24.4412 31.4277 25.4655C32.1631 26.2621 32.9276 26.7317 34.1461 26.945C35.4461 27.1726 37.9281 27.0588 38.8737 25.1241C39.8385 23.1499 40.0556 19.5476 39.5828 17.0439C39.0671 14.3125 38.3079 12.5483 36.8188 10.1128C35.9351 8.66779 34.9648 7.53485 33.7954 6.41377C32.994 5.64541 31.8553 4.89093 30.9095 4.30001C29.4294 3.37523 28.2638 2.80054 26.7868 2.31835C25.5741 1.92243 24.8831 1.73425 23.6261 1.52569C22.7174 1.37494 21.8964 1.29121 21.1474 1.26152M14.2812 2.19159C14.512 2.11763 15.387 1.75506 16.6158 1.52725C17.5819 1.34812 18.8152 1.2844 19.7742 1.26151M19.7742 1.26151C20.254 1.25007 20.6728 1.24269 21.1474 1.26152M19.7742 1.26151L21.1474 1.26152" stroke="url(#paint1_linear_1940_380)" stroke-width="2" stroke-linecap="round"/>
<mask id="path-3-inside-1_1940_380" fill="white">
<ellipse cx="8.97608" cy="14.1622" rx="0.944834" ry="1.71687"/>
</mask>
<ellipse cx="8.97608" cy="14.1622" rx="0.944834" ry="1.71687" fill="white"/>
<path d="M8.92092 14.1622C8.92092 14.5005 8.84329 14.7574 8.76809 14.8941C8.73118 14.9611 8.71204 14.9685 8.73447 14.9513C8.76321 14.9292 8.84788 14.879 8.97608 14.879V16.879C9.76991 16.879 10.2733 16.3072 10.5203 15.8583C10.787 15.3736 10.9209 14.772 10.9209 14.1622H8.92092ZM8.97608 14.879C9.10429 14.879 9.18895 14.9292 9.21769 14.9513C9.24012 14.9685 9.22099 14.9611 9.18408 14.8941C9.10887 14.7574 9.03125 14.5005 9.03125 14.1622H7.03125C7.03125 14.772 7.16513 15.3736 7.43189 15.8583C7.6789 16.3072 8.18225 16.879 8.97608 16.879V14.879ZM9.03125 14.1622C9.03125 13.8238 9.10887 13.567 9.18408 13.4303C9.22099 13.3632 9.24012 13.3559 9.21769 13.3731C9.18895 13.3952 9.10429 13.4453 8.97608 13.4453V11.4453C8.18225 11.4453 7.6789 12.0172 7.43189 12.466C7.16513 12.9508 7.03125 13.5523 7.03125 14.1622H9.03125ZM8.97608 13.4453C8.84788 13.4453 8.76321 13.3952 8.73447 13.3731C8.71204 13.3559 8.73118 13.3632 8.76809 13.4303C8.84329 13.567 8.92092 13.8238 8.92092 14.1622H10.9209C10.9209 13.5523 10.787 12.9508 10.5203 12.466C10.2733 12.0172 9.76991 11.4453 8.97608 11.4453V13.4453Z" fill="white" mask="url(#path-3-inside-1_1940_380)"/>
<mask id="path-5-inside-2_1940_380" fill="white">
<ellipse cx="16.771" cy="16.4512" rx="0.944834" ry="1.71687"/>
</mask>
<ellipse cx="16.771" cy="16.4512" rx="0.944834" ry="1.71687" fill="white"/>
<path d="M16.7158 16.4512C16.7158 16.7896 16.6382 17.0465 16.563 17.1831C16.5261 17.2502 16.507 17.2576 16.5294 17.2403C16.5581 17.2182 16.6428 17.1681 16.771 17.1681V19.1681C17.5648 19.1681 18.0682 18.5962 18.3152 18.1474C18.582 17.6627 18.7158 17.0611 18.7158 16.4512H16.7158ZM16.771 17.1681C16.8992 17.1681 16.9839 17.2182 17.0126 17.2403C17.035 17.2576 17.0159 17.2502 16.979 17.1831C16.9038 17.0465 16.8262 16.7896 16.8262 16.4512H14.8262C14.8262 17.0611 14.9601 17.6627 15.2268 18.1474C15.4738 18.5962 15.9772 19.1681 16.771 19.1681V17.1681ZM16.8262 16.4512C16.8262 16.1129 16.9038 15.856 16.979 15.7194C17.0159 15.6523 17.035 15.6449 17.0126 15.6622C16.9839 15.6843 16.8992 15.7344 16.771 15.7344V13.7344C15.9772 13.7344 15.4738 14.3063 15.2268 14.7551C14.9601 15.2398 14.8262 15.8414 14.8262 16.4512H16.8262ZM16.771 15.7344C16.6428 15.7344 16.5581 15.6843 16.5294 15.6622C16.507 15.6449 16.5261 15.6523 16.563 15.7194C16.6382 15.856 16.7158 16.1129 16.7158 16.4512H18.7158C18.7158 15.8414 18.582 15.2398 18.3152 14.7551C18.0682 14.3063 17.5648 13.7344 16.771 13.7344V15.7344Z" fill="white" mask="url(#path-5-inside-2_1940_380)"/>
<mask id="path-7-inside-3_1940_380" fill="white">
<ellipse cx="0.938722" cy="1.84385" rx="0.938722" ry="1.84385" transform="matrix(0.893411 0.44924 -0.471996 0.881601 24.832 18.1836)"/>
</mask>
<ellipse cx="0.938722" cy="1.84385" rx="0.938722" ry="1.84385" transform="matrix(0.893411 0.44924 -0.471996 0.881601 24.832 18.1836)" fill="url(#paint2_linear_1940_380)"/>
<path d="M23.8522 19.7541C23.7291 19.9841 23.6124 20.0789 23.614 20.0778C23.6157 20.0766 23.7133 20.0056 23.9092 19.9624C24.1219 19.9156 24.4872 19.8986 24.8741 20.0932L22.9861 23.6196C24.2422 24.2512 25.4236 23.6444 25.9421 23.2791C26.5622 22.8423 27.0684 22.2188 27.4259 21.551L23.8522 19.7541ZM24.8741 20.0932C25.261 20.2877 25.4571 20.5869 25.54 20.7824C25.6164 20.9625 25.6126 21.0808 25.6126 21.0828C25.6126 21.0847 25.6254 20.9377 25.7486 20.7076L22.1749 18.9107C21.8174 19.5784 21.5828 20.3385 21.5714 21.0814C21.5618 21.7025 21.7301 22.988 22.9861 23.6196L24.8741 20.0932ZM25.7486 20.7076C25.8717 20.4776 25.9884 20.3828 25.9868 20.3839C25.9851 20.3851 25.8875 20.4561 25.6916 20.4993C25.4789 20.5461 25.1136 20.5631 24.7267 20.3685L26.6147 16.8421C25.3586 16.2105 24.1772 16.8173 23.6587 17.1826C23.0386 17.6194 22.5324 18.2429 22.1749 18.9107L25.7486 20.7076ZM24.7267 20.3685C24.3398 20.174 24.1437 19.8748 24.0608 19.6793C23.9844 19.4992 23.9882 19.3809 23.9882 19.3789C23.9882 19.377 23.9754 19.524 23.8522 19.7541L27.4259 21.551C27.7834 20.8833 28.018 20.1232 28.0294 19.3803C28.039 18.7592 27.8707 17.4737 26.6147 16.8421L24.7267 20.3685Z" fill="url(#paint3_linear_1940_380)" mask="url(#path-7-inside-3_1940_380)"/>
<path d="M14.1161 24.7563C13.9143 25.1334 13.642 25.4036 13.389 25.5468C13.1305 25.693 12.9578 25.6775 12.8682 25.6325C12.7787 25.5875 12.6662 25.4595 12.6407 25.1705C12.6158 24.8876 12.6871 24.5163 12.8889 24.1392C13.0908 23.7622 13.3631 23.4919 13.616 23.3488C13.8745 23.2025 14.0473 23.218 14.1368 23.263C14.2264 23.3081 14.3389 23.436 14.3643 23.725C14.3892 24.0079 14.318 24.3793 14.1161 24.7563Z" fill="url(#paint4_linear_1940_380)" stroke="url(#paint5_linear_1940_380)"/>
<path d="M25.2665 38.0735C25.2665 38.0735 23.7002 38.3513 22.932 38.4721C20.0658 38.9228 16.5963 38.585 13.4566 37.4092C12.7746 37.1537 12.1846 36.9408 11.5341 36.6119C9.36083 35.5132 8.04028 34.5061 6.38587 32.7508C4.89108 31.1648 4.01612 30.1616 3.02 28.2413C1.92994 26.1399 1.38867 24.3326 1.0974 21.9966C0.798305 19.5977 1.15528 17.0446 1.79614 14.7098C2.40446 12.4935 2.97044 11.7408 3.69226 10.4163C4.06534 9.73171 5.36374 7.90309 7.24299 6.17795C8.15045 5.34491 10.9876 2.93617 11.34 4.19123C11.4327 4.52146 11.4766 5.25083 11.5628 5.93807C11.5943 6.18873 11.7349 6.64058 11.8684 7.03201C12.0161 7.46497 12.4501 7.72654 12.907 7.70377C13.5981 7.66933 14.6212 7.66597 15.4207 7.86402C16.0544 8.02099 16.7031 8.37566 17.2402 8.7321C17.8531 9.13894 18.7603 8.89521 19.0473 8.21782C19.6065 6.89825 20.513 5.22862 21.4108 5.58209C21.6155 5.66267 22.449 7.68046 22.7028 8.43451C23.1636 9.80367 23.2213 11.0785 23.2213 11.0785" stroke="white" stroke-width="2" stroke-linecap="round"/>
<path d="M12.6559 18.2077L12.6559 18.2077L12.671 18.2136C12.8909 18.2991 12.9389 18.5861 12.7595 18.7426C12.594 18.887 12.3213 18.8224 12.2477 18.603C12.1723 18.3781 12.3653 18.1597 12.5855 18.1896C12.6096 18.1928 12.6333 18.1989 12.6559 18.2077Z" fill="white" stroke="white"/>
</g>
<defs>
<linearGradient id="paint0_linear_1940_380" x1="35.1525" y1="12.7734" x2="11.4763" y2="35.94" gradientUnits="userSpaceOnUse">
<stop offset="0.243506" stop-color="#FFAE4E"/>
<stop offset="0.859185" stop-color="#FF4C8C"/>
</linearGradient>
<linearGradient id="paint1_linear_1940_380" x1="39.8235" y1="1.25" x2="14.0447" y2="26.7912" gradientUnits="userSpaceOnUse">
<stop offset="0.243506" stop-color="#FFAE4E"/>
<stop offset="0.859185" stop-color="#FF4C8C"/>
</linearGradient>
<linearGradient id="paint2_linear_1940_380" x1="1.87744" y1="0" x2="-1.10454" y2="1.51815" gradientUnits="userSpaceOnUse">
<stop offset="0.243506" stop-color="#FFAE4E"/>
<stop offset="0.859185" stop-color="#FF4C8C"/>
</linearGradient>
<linearGradient id="paint3_linear_1940_380" x1="26.5094" y1="19.027" x2="23.1294" y2="18.9748" gradientUnits="userSpaceOnUse">
<stop offset="0.243506" stop-color="#FFAE4E"/>
<stop offset="0.859185" stop-color="#FF4C8C"/>
</linearGradient>
<linearGradient id="paint4_linear_1940_380" x1="15.4331" y1="23.3554" x2="11.4108" y2="23.7095" gradientUnits="userSpaceOnUse">
<stop offset="0.243506" stop-color="#FFAE4E"/>
<stop offset="0.859185" stop-color="#FF4C8C"/>
</linearGradient>
<linearGradient id="paint5_linear_1940_380" x1="15.4331" y1="23.3554" x2="11.4108" y2="23.7095" gradientUnits="userSpaceOnUse">
<stop offset="0.243506" stop-color="#FFAE4E"/>
<stop offset="0.859185" stop-color="#FF4C8C"/>
</linearGradient>
<clipPath id="clip0_1940_380">
<rect width="41" height="40" fill="white"/>
</clipPath>
</defs>
</svg>
