<svg width="39" height="38" viewBox="0 0 39 38" fill="none" xmlns="http://www.w3.org/2000/svg">
<g clip-path="url(#clip0_393_684)">
<path d="M32.2249 13.2367C32.2249 13.2367 29.0751 11.9838 26.977 12.1476C25.1759 12.2882 23.2924 13.2667 22.6224 13.7813C21.2921 14.8031 20.7242 15.8506 20.0543 17.1575C19.1989 18.8262 18.7273 19.3293 17.0395 20.207C15.8076 20.8476 15.4764 20.7157 13.8015 21.2961C12.9544 21.5897 13.0643 21.5774 12.015 21.9496C10.7867 22.3852 11.6293 24.7347 12.4615 26.0882C13.1982 27.2862 14.1155 28.0211 15.6996 28.702C17.1894 29.3424 17.9958 29.5675 19.6076 29.7911C21.3538 30.0334 23.3082 29.7828 23.9623 30.3357C24.4928 30.7842 25.5688 31.4311 26.3054 31.9545C26.5907 32.1572 26.717 32.507 26.7032 32.8567C26.6689 33.7227 26.8139 35.2055 28.3438 34.3972C29.4305 33.823 30.5057 33.0916 31.3482 32.3776C32.5833 31.3309 33.4382 30.358 33.4382 30.358" stroke="url(#paint0_linear_393_684)" stroke-width="2" stroke-linecap="round"/>
<path d="M30.4561 15.7592C29.6692 16.8404 29.0845 18.7216 28.9946 20.6244C28.9047 22.5273 28.9946 23.2192 29.894 24.1922C30.5935 24.949 31.3207 25.3951 32.4798 25.5977C33.7164 25.8139 36.0774 25.7058 36.9768 23.8679C37.8945 21.9924 38.101 18.5702 37.6513 16.1917C37.1607 13.5969 36.4386 11.9209 35.0221 9.6072C34.1816 8.2344 33.2585 7.1581 32.1463 6.09308C31.3839 5.36314 30.3008 4.64638 29.4011 4.08501C27.9932 3.20647 26.8845 2.66052 25.4795 2.20244C24.3259 1.82631 23.6687 1.64754 22.473 1.44941C21.6086 1.30619 20.8276 1.22665 20.1152 1.19844M13.584 2.08201C13.8035 2.01175 14.6358 1.6673 15.8046 1.45089C16.7236 1.28072 17.8968 1.22018 18.809 1.19844M18.809 1.19844C19.2654 1.18756 19.6637 1.18056 20.1152 1.19844M18.809 1.19844L20.1152 1.19844" stroke="url(#paint1_linear_393_684)" stroke-width="2" stroke-linecap="round"/>
<mask id="path-3-inside-1_393_684" fill="white">
<ellipse cx="8.53742" cy="13.4513" rx="0.898744" ry="1.63102"/>
</mask>
<ellipse cx="8.53742" cy="13.4513" rx="0.898744" ry="1.63102" fill="black"/>
<path d="M8.43616 13.4513C8.43616 13.7658 8.36378 14.001 8.29709 14.122C8.26445 14.1813 8.25037 14.1824 8.27836 14.1609C8.31264 14.1346 8.40321 14.0824 8.53742 14.0824V16.0824C9.31786 16.0824 9.80979 15.5209 10.0488 15.0873C10.3073 14.618 10.4362 14.0377 10.4362 13.4513H8.43616ZM8.53742 14.0824C8.67163 14.0824 8.76219 14.1346 8.79648 14.1609C8.82446 14.1824 8.81039 14.1813 8.77774 14.122C8.71105 14.001 8.63867 13.7658 8.63867 13.4513H6.63867C6.63867 14.0377 6.76748 14.618 7.02607 15.0873C7.26505 15.5209 7.75697 16.0824 8.53742 16.0824V14.0824ZM8.63867 13.4513C8.63867 13.1369 8.71105 12.9017 8.77774 12.7806C8.81039 12.7214 8.82446 12.7203 8.79648 12.7417C8.76219 12.7681 8.67163 12.8203 8.53742 12.8203V10.8203C7.75697 10.8203 7.26505 11.3817 7.02607 11.8154C6.76748 12.2847 6.63867 12.865 6.63867 13.4513H8.63867ZM8.53742 12.8203C8.40321 12.8203 8.31264 12.7681 8.27836 12.7417C8.25037 12.7203 8.26445 12.7214 8.29709 12.7806C8.36378 12.9017 8.43616 13.1369 8.43616 13.4513H10.4362C10.4362 12.865 10.3073 12.2847 10.0488 11.8154C9.80979 11.3817 9.31786 10.8203 8.53742 10.8203V12.8203Z" fill="black" mask="url(#path-3-inside-1_393_684)"/>
<mask id="path-5-inside-2_393_684" fill="white">
<ellipse cx="15.9534" cy="15.631" rx="0.898744" ry="1.63102"/>
</mask>
<ellipse cx="15.9534" cy="15.631" rx="0.898744" ry="1.63102" fill="black"/>
<path d="M15.8522 15.631C15.8522 15.9455 15.7798 16.1807 15.7131 16.3017C15.6805 16.361 15.6664 16.3621 15.6944 16.3406C15.7287 16.3143 15.8192 16.262 15.9534 16.262V18.262C16.7339 18.262 17.2258 17.7006 17.4648 17.2669C17.7234 16.7977 17.8522 16.2174 17.8522 15.631H15.8522ZM15.9534 16.262C16.0876 16.262 16.1782 16.3143 16.2125 16.3406C16.2405 16.3621 16.2264 16.361 16.1938 16.3017C16.1271 16.1807 16.0547 15.9455 16.0547 15.631H14.0547C14.0547 16.2174 14.1835 16.7977 14.4421 17.2669C14.6811 17.7006 15.173 18.262 15.9534 18.262V16.262ZM16.0547 15.631C16.0547 15.3166 16.1271 15.0814 16.1938 14.9603C16.2264 14.9011 16.2405 14.8999 16.2125 14.9214C16.1782 14.9477 16.0876 15 15.9534 15V13C15.173 13 14.6811 13.5614 14.4421 13.9951C14.1835 14.4644 14.0547 15.0447 14.0547 15.631H16.0547ZM15.9534 15C15.8192 15 15.7287 14.9477 15.6944 14.9214C15.6664 14.8999 15.6805 14.9011 15.7131 14.9603C15.7798 15.0814 15.8522 15.3166 15.8522 15.631H17.8522C17.8522 15.0447 17.7234 14.4644 17.4648 13.9951C17.2258 13.5614 16.7339 13 15.9534 13V15Z" fill="black" mask="url(#path-5-inside-2_393_684)"/>
<mask id="path-7-inside-3_393_684" fill="white">
<ellipse cx="0.8927" cy="1.75216" rx="0.8927" ry="1.75216" transform="matrix(0.893642 0.44878 -0.472467 0.881349 23.6211 17.2734)"/>
</mask>
<ellipse cx="0.8927" cy="1.75216" rx="0.8927" ry="1.75216" transform="matrix(0.893642 0.44878 -0.472467 0.881349 23.6211 17.2734)" fill="url(#paint2_linear_393_684)"/>
<path d="M22.6015 18.7214C22.4903 18.9289 22.3891 19.0057 22.4062 18.9936C22.4157 18.987 22.521 18.9123 22.7242 18.8676C22.9441 18.8192 23.3158 18.8029 23.7081 18.9999L21.8182 22.5253C23.0626 23.1502 24.2291 22.5482 24.7333 22.1935C25.3387 21.7676 25.8301 21.1619 26.176 20.5165L22.6015 18.7214ZM23.7081 18.9999C24.1004 19.1969 24.3006 19.5005 24.3864 19.7024C24.4656 19.8889 24.4632 20.0152 24.463 20.0266C24.4627 20.047 24.4693 19.9227 24.5805 19.7153L21.006 17.9201C20.66 18.5655 20.4313 19.3031 20.4201 20.0275C20.4107 20.6306 20.5739 21.9004 21.8182 22.5253L23.7081 18.9999ZM24.5805 19.7153C24.6918 19.5078 24.7929 19.431 24.7758 19.443C24.7664 19.4497 24.661 19.5243 24.4579 19.569C24.238 19.6174 23.8662 19.6338 23.4739 19.4368L25.3638 15.9114C24.1194 15.2865 22.9529 15.8885 22.4487 16.2431C21.8433 16.6691 21.352 17.2747 21.006 17.9201L24.5805 19.7153ZM23.4739 19.4368C23.0816 19.2398 22.8814 18.9362 22.7956 18.7343C22.7164 18.5478 22.7188 18.4214 22.719 18.4101C22.7193 18.3897 22.7127 18.5139 22.6015 18.7214L26.176 20.5165C26.522 19.8711 26.7507 19.1336 26.7619 18.4092C26.7713 17.806 26.6081 16.5363 25.3638 15.9114L23.4739 19.4368Z" fill="url(#paint3_linear_393_684)" mask="url(#path-7-inside-3_393_684)"/>
<path d="M24.0334 36.1663C24.0334 36.1663 22.5436 36.4302 21.8128 36.545C19.0865 36.9731 15.7862 36.6522 12.7997 35.5352C12.1509 35.2925 11.5897 35.0903 10.9709 34.7778C8.90368 33.734 7.64755 32.7773 6.07384 31.1097C4.65197 29.603 3.81969 28.65 2.87216 26.8257C1.83527 24.8294 1.3204 23.1125 1.04335 20.8932C0.758839 18.6143 1.0984 16.1889 1.708 13.9708C2.28665 11.8653 2.82502 11.1502 3.51163 9.89196C3.86651 9.24161 5.10157 7.50442 6.88915 5.86554C7.75234 5.07415 10.4511 2.78585 10.7863 3.97816C10.8745 4.29187 10.9162 4.98477 10.9983 5.63765C11.0272 5.86809 11.1534 6.27751 11.2766 6.6407C11.4236 7.07369 11.8576 7.33478 12.3143 7.31325C12.9708 7.2823 13.9218 7.2827 14.668 7.46731C15.2457 7.61024 15.8367 7.92574 16.3346 8.24987C16.9507 8.65101 17.8574 8.40806 18.1479 7.73262C18.6819 6.49106 19.5279 4.96996 20.3659 5.29947C20.5606 5.37603 21.3534 7.29292 21.5948 8.00927C22.0331 9.30997 22.088 10.5211 22.088 10.5211" stroke="black" stroke-width="2" stroke-linecap="round"/>
<path d="M12.0291 17.3228L12.0291 17.3228L12.0435 17.3284C12.0435 17.3284 12.0435 17.3284 12.0435 17.3284C12.2354 17.403 12.2772 17.6534 12.1205 17.7899C11.9768 17.9152 11.7384 17.8599 11.6739 17.6677C11.6078 17.4709 11.7772 17.2812 11.9679 17.307C11.9889 17.3099 12.0094 17.3152 12.0291 17.3228Z" fill="black" stroke="black"/>
</g>
<defs>
<linearGradient id="paint0_linear_393_684" x1="33.4382" y1="12.1328" x2="10.9452" y2="34.1699" gradientUnits="userSpaceOnUse">
<stop offset="0.243506" stop-color="#FFAE4E"/>
<stop offset="0.859185" stop-color="#FF4C8C"/>
</linearGradient>
<linearGradient id="paint1_linear_393_684" x1="37.8803" y1="1.1875" x2="13.3901" y2="25.483" gradientUnits="userSpaceOnUse">
<stop offset="0.243506" stop-color="#FFAE4E"/>
<stop offset="0.859185" stop-color="#FF4C8C"/>
</linearGradient>
<linearGradient id="paint2_linear_393_684" x1="1.7854" y1="0" x2="-1.04953" y2="1.44435" gradientUnits="userSpaceOnUse">
<stop offset="0.243506" stop-color="#FFAE4E"/>
<stop offset="0.859185" stop-color="#FF4C8C"/>
</linearGradient>
<linearGradient id="paint3_linear_393_684" x1="25.2166" y1="18.0747" x2="22.0016" y2="18.025" gradientUnits="userSpaceOnUse">
<stop offset="0.243506" stop-color="#FFAE4E"/>
<stop offset="0.859185" stop-color="#FF4C8C"/>
</linearGradient>
<clipPath id="clip0_393_684">
<rect width="39" height="38" fill="white"/>
</clipPath>
</defs>
</svg>
